<mxfile host="app.diagrams.net" agent="Mozilla/5.0 (X11; Linux x86_64) AppleWebKit/537.36 (KHTML, like Gecko) Chrome/139.0.0.0 Safari/537.36" version="28.1.2">
  <diagram name="VLF_Racer_Control" id="VLF_Racer_Control">
    <mxGraphModel dx="716" dy="656" grid="1" gridSize="10" guides="1" tooltips="1" connect="1" arrows="1" fold="1" page="1" pageScale="1" pageWidth="1169" pageHeight="827" math="0" shadow="0">
      <root>
        <mxCell id="0" />
        <mxCell id="1" parent="0" />
        <mxCell id="title" value="VLF_Racer 제어 구조 다이어그램" style="text;html=1;strokeColor=none;fillColor=none;align=center;verticalAlign=middle;whiteSpace=wrap;rounded=0;fontSize=20;fontStyle=1;fontColor=#2c5282;" parent="1" vertex="1">
          <mxGeometry x="300" y="20" width="400" height="40" as="geometry" />
        </mxCell>
        <mxCell id="arduino" value="Arduino Uno&#xa;FreeRTOS" style="rounded=1;whiteSpace=wrap;html=1;fillColor=#e3f2fd;strokeColor=#2196f3;strokeWidth=2;fontStyle=1;" parent="1" vertex="1">
          <mxGeometry x="80" y="100" width="120" height="60" as="geometry" />
        </mxCell>
        <mxCell id="camera" value="TSL1401 Camera&#xa;(128 pixels)" style="rounded=1;whiteSpace=wrap;html=1;fillColor=#e3f2fd;strokeColor=#2196f3;strokeWidth=2;" parent="1" vertex="1">
          <mxGeometry x="80" y="200" width="120" height="60" as="geometry" />
        </mxCell>
        <mxCell id="motor" value="DC Motor&#xa;+ Encoder" style="rounded=1;whiteSpace=wrap;html=1;fillColor=#e3f2fd;strokeColor=#2196f3;strokeWidth=2;" parent="1" vertex="1">
          <mxGeometry x="80" y="300" width="120" height="60" as="geometry" />
        </mxCell>
        <mxCell id="servo" value="Servo Motor&#xa;(Steering)" style="rounded=1;whiteSpace=wrap;html=1;fillColor=#e3f2fd;strokeColor=#2196f3;strokeWidth=2;" parent="1" vertex="1">
          <mxGeometry x="80" y="400" width="120" height="60" as="geometry" />
        </mxCell>
        <mxCell id="taskCamera" value="TaskCamera (25Hz)&#xa;&#xa;• Read TSL1401&#xa;• Line threshold&#xa;• Find line center&#xa;• Calculate yaw angle" style="rounded=1;whiteSpace=wrap;html=1;fillColor=#f3e5f5;strokeColor=#9c27b0;strokeWidth=2;align=left;spacingLeft=10;" parent="1" vertex="1">
          <mxGeometry x="300" y="150" width="180" height="120" as="geometry" />
        </mxCell>
        <mxCell id="taskSerial" value="TaskSerial (10Hz)&#xa;&#xa;• Send pixel data&#xa;• Debug output&#xa;• Monitoring" style="rounded=1;whiteSpace=wrap;html=1;fillColor=#f3e5f5;strokeColor=#9c27b0;strokeWidth=2;align=left;spacingLeft=10;" parent="1" vertex="1">
          <mxGeometry x="300" y="300" width="180" height="100" as="geometry" />
        </mxCell>
        <mxCell id="Z88vKyVp7F_2HiAp2NfW-3" style="edgeStyle=orthogonalEdgeStyle;rounded=0;orthogonalLoop=1;jettySize=auto;html=1;entryX=1;entryY=0.75;entryDx=0;entryDy=0;" edge="1" parent="1" source="taskControl" target="motor">
          <mxGeometry relative="1" as="geometry">
            <Array as="points">
              <mxPoint x="250" y="480" />
              <mxPoint x="250" y="345" />
            </Array>
          </mxGeometry>
        </mxCell>
        <mxCell id="taskControl" value="TaskControl (50Hz)&#xa;&#xa;• Mission logic&#xa;• Motor control&#xa;• Servo control&#xa;• Mission state mgmt" style="rounded=1;whiteSpace=wrap;html=1;fillColor=#f3e5f5;strokeColor=#9c27b0;strokeWidth=2;align=left;spacingLeft=10;" parent="1" vertex="1">
          <mxGeometry x="300" y="450" width="180" height="120" as="geometry" />
        </mxCell>
        <mxCell id="pixelData" value="Pixel[128]&#xa;PixelBuffer[128]&#xa;threshold_data[128]" style="rounded=1;whiteSpace=wrap;html=1;fillColor=#e8f5e8;strokeColor=#4caf50;strokeWidth=2;" parent="1" vertex="1">
          <mxGeometry x="550" y="150" width="150" height="80" as="geometry" />
        </mxCell>
        <mxCell id="controlData" value="vision_steer_angle&#xa;steering_angle&#xa;mission_flag&#xa;encoderPos" style="rounded=1;whiteSpace=wrap;html=1;fillColor=#e8f5e8;strokeColor=#4caf50;strokeWidth=2;" parent="1" vertex="1">
          <mxGeometry x="550" y="280" width="150" height="100" as="geometry" />
        </mxCell>
        <mxCell id="watchdog" value="Watchdog Timer&#xa;(2s timeout)" style="rounded=1;whiteSpace=wrap;html=1;fillColor=#fff3e0;strokeColor=#ff9800;strokeWidth=2;" parent="1" vertex="1">
          <mxGeometry x="750" y="100" width="120" height="60" as="geometry" />
        </mxCell>
        <mxCell id="semaphores" value="Semaphores&#xa;• xSerialSemaphore&#xa;• xDataSemaphore&#xa;• xSteeringSemaphore" style="rounded=1;whiteSpace=wrap;html=1;fillColor=#fff3e0;strokeColor=#ff9800;strokeWidth=2;align=left;spacingLeft=10;" parent="1" vertex="1">
          <mxGeometry x="750" y="200" width="160" height="100" as="geometry" />
        </mxCell>
        <mxCell id="missions" value="Mission System&#xa;&#xa;0: start_stop&#xa;1: lane_control&#xa;2: wall_following&#xa;3: turn90&#xa;4-6: custom missions" style="rounded=1;whiteSpace=wrap;html=1;fillColor=#fff8e1;strokeColor=#ffc107;strokeWidth=2;align=left;spacingLeft=10;" parent="1" vertex="1">
          <mxGeometry x="550" y="450" width="180" height="120" as="geometry" />
        </mxCell>
        <mxCell id="edge1" style="edgeStyle=orthogonalEdgeStyle;rounded=0;orthogonalLoop=1;jettySize=auto;html=1;strokeColor=#666666;strokeWidth=2;endArrow=classic;endSize=6;" parent="1" source="camera" target="taskCamera" edge="1">
          <mxGeometry relative="1" as="geometry" />
        </mxCell>
        <mxCell id="edge2" style="edgeStyle=orthogonalEdgeStyle;rounded=0;orthogonalLoop=1;jettySize=auto;html=1;strokeColor=#666666;strokeWidth=2;endArrow=classic;endSize=6;" parent="1" source="taskCamera" target="pixelData" edge="1">
          <mxGeometry relative="1" as="geometry" />
        </mxCell>
        <mxCell id="edge3" style="edgeStyle=orthogonalEdgeStyle;rounded=0;orthogonalLoop=1;jettySize=auto;html=1;strokeColor=#666666;strokeWidth=2;endArrow=classic;endSize=6;" parent="1" source="taskCamera" target="controlData" edge="1">
          <mxGeometry relative="1" as="geometry" />
        </mxCell>
        <mxCell id="edge4" style="edgeStyle=orthogonalEdgeStyle;rounded=0;orthogonalLoop=1;jettySize=auto;html=1;strokeColor=#666666;strokeWidth=2;endArrow=classic;endSize=6;" parent="1" source="pixelData" target="taskSerial" edge="1">
          <mxGeometry relative="1" as="geometry" />
        </mxCell>
        <mxCell id="edge5" style="edgeStyle=orthogonalEdgeStyle;rounded=0;orthogonalLoop=1;jettySize=auto;html=1;strokeColor=#666666;strokeWidth=2;endArrow=classic;endSize=6;" parent="1" source="controlData" target="taskControl" edge="1">
          <mxGeometry relative="1" as="geometry" />
        </mxCell>
        <mxCell id="edge6" style="edgeStyle=orthogonalEdgeStyle;rounded=0;orthogonalLoop=1;jettySize=auto;html=1;strokeColor=#666666;strokeWidth=2;endArrow=classic;endSize=6;entryX=0.5;entryY=1;entryDx=0;entryDy=0;" parent="1" source="taskControl" target="servo" edge="1">
          <mxGeometry relative="1" as="geometry">
            <mxPoint x="240" y="370" as="targetPoint" />
            <Array as="points">
              <mxPoint x="140" y="530" />
            </Array>
          </mxGeometry>
        </mxCell>
        <mxCell id="edge8" style="edgeStyle=orthogonalEdgeStyle;rounded=0;orthogonalLoop=1;jettySize=auto;html=1;strokeColor=#666666;strokeWidth=2;endArrow=classic;endSize=6;" parent="1" source="missions" target="taskControl" edge="1">
          <mxGeometry relative="1" as="geometry" />
        </mxCell>
        <mxCell id="edge9" style="edgeStyle=orthogonalEdgeStyle;rounded=0;orthogonalLoop=1;jettySize=auto;html=1;strokeColor=#ff5722;strokeWidth=2;endArrow=classic;endSize=6;dashed=1;" parent="1" source="motor" target="controlData" edge="1">
          <mxGeometry relative="1" as="geometry" />
        </mxCell>
        <mxCell id="legend_title" value="범례 (Legend)" style="text;html=1;strokeColor=none;fillColor=none;align=left;verticalAlign=top;whiteSpace=wrap;rounded=0;fontSize=14;fontStyle=1;" parent="1" vertex="1">
          <mxGeometry x="80" y="620" width="100" height="30" as="geometry" />
        </mxCell>
        <mxCell id="legend1" value="하드웨어" style="rounded=1;whiteSpace=wrap;html=1;fillColor=#e3f2fd;strokeColor=#2196f3;strokeWidth=2;fontSize=10;" parent="1" vertex="1">
          <mxGeometry x="80" y="650" width="80" height="30" as="geometry" />
        </mxCell>
        <mxCell id="legend2" value="태스크" style="rounded=1;whiteSpace=wrap;html=1;fillColor=#f3e5f5;strokeColor=#9c27b0;strokeWidth=2;fontSize=10;" parent="1" vertex="1">
          <mxGeometry x="180" y="650" width="80" height="30" as="geometry" />
        </mxCell>
        <mxCell id="legend3" value="데이터" style="rounded=1;whiteSpace=wrap;html=1;fillColor=#e8f5e8;strokeColor=#4caf50;strokeWidth=2;fontSize=10;" parent="1" vertex="1">
          <mxGeometry x="280" y="650" width="80" height="30" as="geometry" />
        </mxCell>
        <mxCell id="legend4" value="안전시스템" style="rounded=1;whiteSpace=wrap;html=1;fillColor=#fff3e0;strokeColor=#ff9800;strokeWidth=2;fontSize=10;" parent="1" vertex="1">
          <mxGeometry x="380" y="650" width="80" height="30" as="geometry" />
        </mxCell>
        <mxCell id="legend5" value="미션시스템" style="rounded=1;whiteSpace=wrap;html=1;fillColor=#fff8e1;strokeColor=#ffc107;strokeWidth=2;fontSize=10;" parent="1" vertex="1">
          <mxGeometry x="480" y="650" width="80" height="30" as="geometry" />
        </mxCell>
      </root>
    </mxGraphModel>
  </diagram>
</mxfile>
